<?xml version="1.0" encoding="UTF-8"?>
<svg version="1.1" xmlns="http://www.w3.org/2000/svg" width="500" height="200">
<path d="M0 0 C331.98 0 663.96 0 1006 0 C1006 141.9 1006 283.8 1006 430 C674.02 430 342.04 430 0 430 C0 288.1 0 146.2 0 0 Z " fill="#FEFEFE" transform="translate(0,0)"/>
<path d="M0 0 C1.61551758 -0.0609082 1.61551758 -0.0609082 3.26367188 -0.12304688 C11.59083747 -0.15835285 16.49506998 2.18581665 22.6875 7.6875 C27.44964484 12.68194459 27.77828873 16.69876758 28.25 23.4375 C28.33378906 24.60796875 28.41757813 25.7784375 28.50390625 26.984375 C28.56449219 27.87640625 28.62507813 28.7684375 28.6875 29.6875 C29.24735596 29.70208252 29.80721191 29.71666504 30.3840332 29.73168945 C32.92338137 29.80621352 35.46142078 29.90285581 38 30 C39.32161133 30.03383789 39.32161133 30.03383789 40.66992188 30.06835938 C41.94125977 30.1215332 41.94125977 30.1215332 43.23828125 30.17578125 C44.40870972 30.21505737 44.40870972 30.21505737 45.6027832 30.25512695 C48.17376351 30.7883517 49.08326996 31.64410574 50.6875 33.6875 C52.94123862 42.78847503 51.77992721 53.35235151 51.6875 62.6875 C52.84765625 62.63529297 52.84765625 62.63529297 54.03125 62.58203125 C63.81421084 62.32777113 69.83591524 63.63088538 77.2421875 70.08984375 C80.92209444 74.15763277 81.24232202 78.64699614 81.8125 83.9375 C81.94205078 85.05511719 81.94205078 85.05511719 82.07421875 86.1953125 C82.28536867 88.02527846 82.48734545 89.85629879 82.6875 91.6875 C83.95207031 91.72488281 85.21664062 91.76226562 86.51953125 91.80078125 C88.1797173 91.86643833 89.83987222 91.93288576 91.5 92 C92.33337891 92.02255859 93.16675781 92.04511719 94.02539062 92.06835938 C95.22905273 92.1215332 95.22905273 92.1215332 96.45703125 92.17578125 C97.19542236 92.20196533 97.93381348 92.22814941 98.69458008 92.25512695 C101.36941483 92.83544453 102.17790481 93.38240164 103.6875 95.6875 C104.02190829 98.25608044 104.17617234 100.5939747 104.19921875 103.16796875 C104.22621353 104.29811653 104.22621353 104.29811653 104.25375366 105.45109558 C104.30871525 107.92567728 104.34224631 110.40003273 104.375 112.875 C104.40784133 114.58091011 104.44162242 116.28680238 104.47631836 117.99267578 C104.77699889 133.88923223 104.79557451 149.78890755 104.6875 165.6875 C102.7075 166.6775 102.7075 166.6775 100.6875 167.6875 C100.6875 168.3475 100.6875 169.0075 100.6875 169.6875 C80.547135 169.78089345 60.40681386 169.8514547 40.26627731 169.89474869 C30.91491207 169.91538412 21.56368129 169.9435234 12.21240234 169.98925781 C4.06292134 170.02909562 -4.0864623 170.05492568 -12.23603797 170.06385398 C-16.55221847 170.06907394 -20.86812041 170.08136289 -25.18421173 170.11042023 C-29.24552691 170.13754118 -33.3064484 170.14595182 -37.36784554 170.13993073 C-38.85941519 170.14103246 -40.35099781 170.14900639 -41.84248924 170.1643219 C-43.87725712 170.1841937 -45.91223555 170.17706124 -47.94708252 170.16851807 C-49.08641865 170.17220524 -50.22575478 170.17589241 -51.39961624 170.17969131 C-54.96253285 169.57766365 -56.14096134 168.52351048 -58.3125 165.6875 C-58.73828125 163.171875 -58.73828125 163.171875 -58.625 160.4375 C-58.60050781 159.54546875 -58.57601562 158.6534375 -58.55078125 157.734375 C-58.37633852 155.50379585 -58.11977309 153.27922781 -57.81640625 151.0625 C-57.11851781 145.70423258 -57.07804876 140.33350999 -56.9375 134.9375 C-56.5949204 124.06293348 -55.64402048 113.34116443 -54.39892578 102.53588867 C-53.68096836 96.27067761 -53.08220066 90.0501463 -52.8125 83.75 C-52.47137685 76.70476271 -51.54660839 69.84164153 -50.46875 62.8737793 C-49.3042639 55.17813722 -48.61769534 47.47375217 -48.13500977 39.70629883 C-48.06983154 38.83126709 -48.00465332 37.95623535 -47.9375 37.0546875 C-47.88851562 36.28237793 -47.83953125 35.51006836 -47.7890625 34.71435547 C-47.18913911 32.16283705 -46.42361152 31.22348344 -44.3125 29.6875 C-42.41137695 29.34692383 -42.41137695 29.34692383 -40.30078125 29.39453125 C-39.54345703 29.40419922 -38.78613281 29.41386719 -38.00585938 29.42382812 C-37.22017578 29.44896484 -36.43449219 29.47410156 -35.625 29.5 C-34.42907227 29.52030273 -34.42907227 29.52030273 -33.20898438 29.54101562 C-31.24320033 29.57632911 -29.27776418 29.63013553 -27.3125 29.6875 C-27.36470703 28.50994141 -27.36470703 28.50994141 -27.41796875 27.30859375 C-27.6332195 18.95481461 -26.92695846 14.39131615 -22.0625 7.5 C-15.26083081 0.54374742 -9.40914303 -0.01671251 0 0 Z " fill="#F8AF25" transform="translate(133.3125,122.3125)"/>
<path d="M0 0 C1.35448242 -0.01740234 1.35448242 -0.01740234 2.73632812 -0.03515625 C10.13431649 -0.00301437 16.74098068 1.17473018 22.4375 6.3125 C22.99179688 6.79589844 23.54609375 7.27929688 24.1171875 7.77734375 C27.79709444 11.84513277 28.11732202 16.33449614 28.6875 21.625 C28.77386719 22.37007812 28.86023438 23.11515625 28.94921875 23.8828125 C29.16036867 25.71277846 29.36234545 27.54379879 29.5625 29.375 C30.82707031 29.41238281 32.09164062 29.44976562 33.39453125 29.48828125 C35.0547173 29.55393833 36.71487222 29.62038576 38.375 29.6875 C39.20837891 29.71005859 40.04175781 29.73261719 40.90039062 29.75585938 C42.10405273 29.8090332 42.10405273 29.8090332 43.33203125 29.86328125 C44.43961792 29.90255737 44.43961792 29.90255737 45.56958008 29.94262695 C48.24441483 30.52294453 49.05290481 31.06990164 50.5625 33.375 C50.89690665 35.94356783 51.05109939 38.28148898 51.07421875 40.85546875 C51.10148544 41.9854126 51.10148544 41.9854126 51.12930298 43.13818359 C51.18471735 45.61291673 51.21832335 48.08735725 51.25 50.5625 C51.2801467 52.27060163 51.31099614 53.97869099 51.3425293 55.68676758 C51.40350655 59.18824315 51.45336818 62.68965034 51.49511719 66.19140625 C51.54512306 70.33088875 51.62282891 74.46914778 51.71165466 78.60795593 C51.77099127 81.56244828 51.81187464 84.51695693 51.84658813 87.47183228 C51.86546992 88.86123522 51.89063813 90.25056749 51.92221069 91.63973999 C51.96356945 93.56549808 51.97664694 95.49180172 51.98828125 97.41796875 C52.00286377 98.50102295 52.01744629 99.58407715 52.0324707 100.69995117 C51.5625 103.375 51.5625 103.375 50.08636475 105.01792908 C46.39371369 107.00345123 42.80073262 106.79271085 38.71069336 106.76318359 C37.81759964 106.76844055 36.92450592 106.77369751 36.00434875 106.77911377 C33.05350232 106.79231333 30.10319563 106.78357653 27.15234375 106.7734375 C25.10258378 106.77545807 23.05282452 106.77836936 21.00306702 106.78213501 C16.70827385 106.78655816 12.41366789 106.78012686 8.11889648 106.76611328 C2.60830528 106.74901071 -2.90184795 106.75886954 -8.41242313 106.77683067 C-12.64427505 106.78765951 -16.87602272 106.78422648 -21.10787773 106.7764473 C-23.140101 106.77444336 -25.17233368 106.77691133 -27.20454597 106.78388596 C-30.04164924 106.79148675 -32.87803798 106.77991596 -35.71508789 106.76318359 C-36.55828583 106.76925629 -37.40148376 106.77532898 -38.27023315 106.78158569 C-43.99637281 106.71887561 -43.99637281 106.71887561 -46.15242767 105.03814793 C-48.19473442 102.3949829 -47.82704437 99.96105546 -47.84155273 96.67211914 C-47.84841599 95.99535629 -47.85527924 95.31859344 -47.86235046 94.62132263 C-47.88065266 92.38405377 -47.87677629 90.14748392 -47.87109375 87.91015625 C-47.87565414 86.35460685 -47.88095929 84.79905946 -47.88697815 83.24351501 C-47.89591608 79.98265399 -47.89347877 76.72203778 -47.88354492 73.46118164 C-47.87205763 69.28336522 -47.89225868 65.10639432 -47.92146206 60.928689 C-47.93981384 57.71588273 -47.93953365 54.50327942 -47.93382454 51.29043388 C-47.93367118 49.75025688 -47.93972776 48.21006623 -47.95211601 46.66993904 C-47.96700499 44.51517953 -47.95636685 42.36198608 -47.93920898 40.20727539 C-47.93904282 38.98166397 -47.93887665 37.75605255 -47.93870544 36.49330139 C-47.34456146 32.79677331 -46.3742891 31.62027902 -43.4375 29.375 C-41.42285156 28.92089844 -41.42285156 28.92089844 -39.328125 28.984375 C-38.57402344 28.99726563 -37.81992188 29.01015625 -37.04296875 29.0234375 C-35.87701172 29.07371094 -35.87701172 29.07371094 -34.6875 29.125 C-33.49833984 29.15207031 -33.49833984 29.15207031 -32.28515625 29.1796875 C-30.33541652 29.22666918 -28.38630122 29.29840956 -26.4375 29.375 C-26.48970703 28.19744141 -26.48970703 28.19744141 -26.54296875 26.99609375 C-26.77990317 17.80078182 -25.13397999 12.0936593 -19.328125 4.953125 C-13.43356833 0.03287522 -7.34987851 -0.0940283 0 0 Z " fill="#EE333C" transform="translate(186.4375,184.625)"/>
<path d="M0 0 C5.7577484 4.55116142 8.81643289 9.76460103 10.14453125 16.97265625 C10.78909929 22.51594143 10.6875 27.87335197 10.6875 33.4921875 C-4.4925 33.1621875 -19.6725 32.8321875 -35.3125 32.4921875 C-32.33934461 41.77536045 -32.33934461 41.77536045 -28.75 45.1171875 C-23.12474102 47.36729109 -17.32970488 47.43134564 -11.5390625 45.62890625 C-8.58364663 44.12008867 -8.47037385 42.5026595 -7.3125 39.4921875 C-5.4375 38.4921875 -5.4375 38.4921875 -3.3125 38.4921875 C-1.25 39.8671875 -1.25 39.8671875 0.6875 41.4921875 C1.6775 41.8221875 2.6675 42.1521875 3.6875 42.4921875 C3.873125 41.5640625 3.873125 41.5640625 4.0625 40.6171875 C4.6875 38.4921875 4.6875 38.4921875 6.6875 36.4921875 C10.6171507 36.05555964 12.82442366 35.89467311 16.125 38.1796875 C17.95777568 40.89219551 18.12122673 42.28260973 17.6875 45.4921875 C17.3575 45.8221875 17.0275 46.1521875 16.6875 46.4921875 C16.52083333 49.4921875 16.52083333 49.4921875 16.6875 52.4921875 C18.27022601 54.07491351 20.06784003 53.83954497 22.25 54.0546875 C23.07628906 54.13847656 23.90257812 54.22226563 24.75390625 54.30859375 C25.39199219 54.36917969 26.03007813 54.42976563 26.6875 54.4921875 C27.0175 53.5021875 27.3475 52.5121875 27.6875 51.4921875 C35.29065896 51.37128921 42.84557268 51.53047121 50.4375 51.9296875 C51.23591309 51.96892334 52.03432617 52.00815918 52.85693359 52.04858398 C58.56630977 52.37099727 58.56630977 52.37099727 59.6875 53.4921875 C59.78736975 56.33553798 59.82627881 59.14915913 59.8125 61.9921875 C59.81636719 62.79011719 59.82023438 63.58804688 59.82421875 64.41015625 C59.81410767 70.36557983 59.81410767 70.36557983 58.6875 71.4921875 C57.16821962 71.56398714 55.64582518 71.57610757 54.125 71.5546875 C52.88556641 71.54115234 52.88556641 71.54115234 51.62109375 71.52734375 C50.66396484 71.50994141 50.66396484 71.50994141 49.6875 71.4921875 C50.14189453 72.47614502 50.59628906 73.46010254 51.06445312 74.47387695 C52.74742073 78.12214098 54.42292759 81.77379014 56.09619141 85.42651367 C56.82169508 87.00752739 57.54922391 88.58761342 58.27880859 90.16674805 C59.326621 92.43558266 60.36712597 94.70764425 61.40625 96.98046875 C61.89841003 98.03999504 61.89841003 98.03999504 62.4005127 99.1209259 C63.748598 102.0856964 64.6875 104.19582685 64.6875 107.4921875 C63.89166504 107.85981201 63.09583008 108.22743652 62.27587891 108.60620117 C59.27465462 109.99347732 56.27408577 111.38215303 53.27392578 112.77172852 C51.98446529 113.36862963 50.69475873 113.96499953 49.40478516 114.56079102 C47.53219948 115.42578883 45.6605555 116.29279726 43.7890625 117.16015625 C43.17790588 117.44204803 42.56674927 117.72393982 41.93707275 118.01437378 C37.45235076 120.0962699 33.07882906 122.3449897 28.75146484 124.7355957 C26.23268497 125.65890997 25.1265806 125.58229015 22.6875 124.4921875 C21.1597623 122.0125976 19.90646367 119.6797611 18.6875 117.0546875 C18.16313354 115.96522827 18.16313354 115.96522827 17.62817383 114.85375977 C15.07414045 109.48879956 12.79697376 104.04611601 10.6875 98.4921875 C9.70871863 96.14904421 8.70003495 93.82101788 7.6875 91.4921875 C6.945 92.2965625 6.2025 93.1009375 5.4375 93.9296875 C1.7069105 97.40591863 1.7069105 97.40591863 -1.3125 97.4921875 C-4.109375 95.62109375 -4.109375 95.62109375 -7.0625 93.0546875 C-8.04734375 92.21035156 -9.0321875 91.36601562 -10.046875 90.49609375 C-11.16835938 89.50416016 -11.16835938 89.50416016 -12.3125 88.4921875 C-11.83810894 83.74827687 -9.60474637 80.82920166 -6.6875 77.2421875 C-5.77444691 76.09658737 -4.86168797 74.95075274 -3.94921875 73.8046875 C-3.49981934 73.24523437 -3.05041992 72.68578125 -2.58740234 72.109375 C-0.28216121 69.18522386 1.86441372 66.13756354 4.01953125 63.1015625 C6.14910802 61.04679522 7.80485581 60.90665492 10.6875 60.4921875 C12.62782404 59.30323514 12.62782404 59.30323514 13.6875 57.4921875 C13.39264846 55.63952677 13.39264846 55.63952677 12.6875 53.4921875 C12.41881456 48.65584959 12.92623407 45.00543144 14.6875 40.4921875 C12.3775 40.1621875 10.0675 39.8321875 7.6875 39.4921875 C7.831875 40.6471875 7.97625 41.8021875 8.125 42.9921875 C8.09935035 47.82287246 6.17600489 50.27184099 2.890625 53.6640625 C-5.23198847 60.40410346 -14.03024846 62.10628828 -24.3125 61.4921875 C-33.67409574 60.14507263 -41.38982751 55.8766901 -47.3125 48.4921875 C-52.97899368 39.84239964 -54.33707329 29.64477742 -53.3125 19.4921875 C-51.23921781 10.09980174 -44.91018931 4.08987681 -38.3125 -2.5078125 C-26.18561342 -8.07341518 -11.14865541 -7.26922465 0 0 Z " fill="#080808" transform="translate(889.3125,197.5078125)"/>
<path d="M0 0 C0 7.59 0 15.18 0 23 C-5 21 -5 21 -7 19 C-16.07614711 16.00016368 -26.45479398 13.1690437 -36 15 C-38.86496389 16.69661071 -38.86496389 16.69661071 -41 19 C-41.65897769 23.02708588 -41.58604112 25.0937939 -39.35546875 28.54296875 C-36.62796751 31.38807369 -34.40728977 32.43760007 -30.75 33.875 C-29.50122139 34.38652181 -28.25252686 34.89824889 -27.00390625 35.41015625 C-24.98258628 36.21778521 -22.95825959 37.01620996 -20.92919922 37.80419922 C-10.96025641 41.70184851 -3.04086397 45.58696475 3.1953125 54.7578125 C5.50503596 61.1936439 5.35667756 70.58335048 2.83203125 76.94140625 C1.36691414 79.16732967 -0.17132106 81.06607335 -2 83 C-2.7425 83.928125 -3.485 84.85625 -4.25 85.8125 C-11.84159169 91.85126612 -20.08452145 92.63695242 -29.5 92.5 C-30.56347656 92.51546875 -31.62695312 92.5309375 -32.72265625 92.546875 C-39.07183874 92.51571337 -44.02468332 91.65042146 -49.80029297 88.97949219 C-53.10934256 87.50602859 -56.47131811 86.78415153 -60 86 C-60.0276619 84.50011039 -60.0466861 83.00006131 -60.0625 81.5 C-60.07990234 80.24703125 -60.07990234 80.24703125 -60.09765625 78.96875 C-59.97572095 75.26191676 -59.49865131 71.67509943 -59 68 C-57.38931641 68.52400391 -57.38931641 68.52400391 -55.74609375 69.05859375 C-54.30998974 69.51852249 -52.87378648 69.97814142 -51.4375 70.4375 C-50.73302734 70.66759766 -50.02855469 70.89769531 -49.30273438 71.13476562 C-41.10563108 73.74121782 -31.43985622 75.9777079 -23.125 72.75 C-20.04204449 71.02354491 -18.53103695 70.15213489 -17 67 C-16.74913276 63.83267579 -16.74913276 63.83267579 -17 61 C-22.97888289 57.68003063 -29.03728729 55.23141479 -35.5 53.0625 C-45.15716721 49.7371746 -53.92337902 46.53539158 -59.00390625 37.05078125 C-61.38353973 29.76257048 -61.21122116 21.44373826 -58.6796875 14.24609375 C-57.17490951 11.33802279 -55.92630818 9.4611346 -53.5625 7.25 C-52.98628906 6.69828125 -52.41007812 6.1465625 -51.81640625 5.578125 C-37.90969768 -6.50426266 -16.82656135 -2.10332017 0 0 Z " fill="#060606" transform="translate(326,166)"/>
<path d="M0 0 C0.62261719 0.41507813 1.24523437 0.83015625 1.88671875 1.2578125 C2.95986328 1.91136719 2.95986328 1.91136719 4.0546875 2.578125 C9.07902091 5.9276806 11.93440539 9.53323264 13.88671875 15.2578125 C14.88671875 20.2578125 14.88671875 20.2578125 14.88671875 36.2578125 C-0.29328125 35.9278125 -15.47328125 35.5978125 -31.11328125 35.2578125 C-27.74338068 43.9663904 -27.74338068 43.9663904 -21.11328125 49.2578125 C-13.34069476 50.2809599 -13.34069476 50.2809599 -6.1796875 47.98828125 C-4.48076797 45.91630521 -3.30794264 43.64713528 -2.11328125 41.2578125 C1.45712178 41.91683549 4.0640413 43.42010408 7.13671875 45.3203125 C8.02875 45.86816406 8.92078125 46.41601562 9.83984375 46.98046875 C10.5153125 47.40199219 11.19078125 47.82351562 11.88671875 48.2578125 C11.29991244 51.60260848 10.25720471 53.34342865 7.88671875 55.7578125 C7.08234375 56.60859375 7.08234375 56.60859375 6.26171875 57.4765625 C-0.28824379 62.38903441 -6.83998835 63.98942111 -14.92578125 63.8828125 C-15.79871826 63.87443359 -16.67165527 63.86605469 -17.57104492 63.85742188 C-27.10282547 63.5254825 -34.33709984 60.42319974 -41.11328125 53.6328125 C-48.23783473 44.41792548 -49.13728037 33.5344448 -48.11328125 22.2578125 C-46.49280127 13.09741328 -40.87682393 6.5494122 -34.1171875 0.484375 C-25.34747068 -4.88344387 -8.9631699 -5.03628014 0 0 Z " fill="#070707" transform="translate(546.11328125,194.7421875)"/>
<path d="M0 0 C0.92232422 0.00902344 1.84464844 0.01804688 2.79492188 0.02734375 C5.05105809 0.0507234 7.30663684 0.08349084 9.5625 0.125 C9.5625 0.785 9.5625 1.445 9.5625 2.125 C10.2946875 2.23972656 11.026875 2.35445312 11.78125 2.47265625 C17.32039991 3.77186697 21.95528767 6.82031817 25.21875 11.5 C30.14047817 20.88562117 29.5625 28.24891383 29.5625 39.125 C14.3825 38.795 -0.7975 38.465 -16.4375 38.125 C-13.06759943 46.8335779 -13.06759943 46.8335779 -6.4375 52.125 C-1.57957935 52.53178241 2.99402035 52.74585653 7.5625 50.9375 C9.8286525 48.88379929 11.16989383 46.83691727 12.5625 44.125 C16.13290303 44.78402299 18.73982255 46.28729158 21.8125 48.1875 C22.70453125 48.73535156 23.5965625 49.28320312 24.515625 49.84765625 C25.19109375 50.26917969 25.8665625 50.69070312 26.5625 51.125 C26.02193348 55.02231024 24.34230699 56.63225453 21.4375 59.1875 C20.69242188 59.85910156 19.94734375 60.53070313 19.1796875 61.22265625 C10.34243493 67.64615177 0.07512553 67.43424109 -10.4375 66.125 C-20.18850024 63.33461943 -25.96464577 57.33428135 -31.4375 49.125 C-34.69383614 39.89871428 -35.21102576 27.23586926 -31.4765625 18.07421875 C-27.65041916 10.89660399 -22.13131667 3.89264597 -14.3671875 0.96875 C-9.62382965 -0.27324342 -4.86886049 -0.09113778 0 0 Z " fill="#070707" transform="translate(691.4375,191.875)"/>
<path d="M0 0 C0.92074889 2.70700174 1.83659343 5.41551993 2.75 8.125 C3.00265625 8.86621094 3.2553125 9.60742188 3.515625 10.37109375 C5.09523231 15.07042549 6.51686854 19.79038356 7.84765625 24.56640625 C9.9563397 32.02914508 12.40753782 39.34845311 14.9465332 46.6730957 C15.70184529 48.85391937 16.44986147 51.03715812 17.19726562 53.22070312 C17.67666218 54.61212434 18.15646379 56.00340608 18.63671875 57.39453125 C19.28193481 59.26395386 19.28193481 59.26395386 19.94018555 61.17114258 C20.72667904 63.86470807 20.72667904 63.86470807 22 65 C26.001966 53.65376673 29.37452594 42.21873443 32.44775391 30.58691406 C34.80404787 21.67070826 37.35001636 12.83327881 40 4 C46.6 4.66 53.2 5.32 60 6 C59.19442302 10.0278849 58.30690387 12.8774788 56.6875 16.5625 C54.54484797 21.58049255 52.72627103 26.6169262 51.08984375 31.8203125 C50.19289881 34.43720564 49.21028933 36.9570864 48.15917969 39.51318359 C45.98536851 44.92683458 44.14529825 50.41579902 42.36328125 55.96875 C42.03837204 56.97087524 41.71346283 57.97300049 41.37870789 59.00549316 C40.35341132 62.16929543 39.33265923 65.33453787 38.3125 68.5 C37.28097563 71.69380897 36.24846609 74.8872919 35.2141571 78.0802002 C34.57356202 80.05838746 33.93468093 82.03713075 33.29768372 84.01647949 C33.01035873 84.9050061 32.72303375 85.79353271 32.42700195 86.70898438 C32.174814 87.49156616 31.92262604 88.27414795 31.66279602 89.08044434 C31 91 31 91 30 93 C23.4 93 16.8 93 10 93 C9.70609375 91.61296875 9.4121875 90.2259375 9.109375 88.796875 C6.11279395 75.2683628 2.28445168 62.18607598 -2.125 49.0625 C-2.38430298 48.28845825 -2.64360596 47.5144165 -2.9107666 46.71691895 C-5.71238365 38.38278223 -8.58773862 30.10802497 -12 22 C-12.47824219 20.85789063 -12.95648437 19.71578125 -13.44921875 18.5390625 C-14.28155867 16.58030673 -15.11490835 14.62197977 -15.94921875 12.6640625 C-16.82716046 10.43820284 -17.4968369 8.33334977 -18 6 C-17.43152344 5.90203125 -16.86304688 5.8040625 -16.27734375 5.703125 C-11.03544251 4.68799888 -4.78012598 0 0 0 Z " fill="#060606" transform="translate(588,164)"/>
<path d="M0 0 C8.91 0 17.82 0 27 0 C27 4.29 27 8.58 27 13 C23.37 13 19.74 13 16 13 C18.40206695 18.92509848 20.87400701 24.76937212 23.59375 30.5546875 C24.27848389 32.02107666 24.27848389 32.02107666 24.97705078 33.51708984 C25.90322721 35.49334265 26.83900087 37.46512823 27.78466797 39.43212891 C28.21408691 40.35171387 28.64350586 41.27129883 29.0859375 42.21875 C29.4782959 43.04310547 29.8706543 43.86746094 30.27490234 44.71679688 C31.10750094 47.33850127 31.10964421 48.49611891 30 51 C24.7737597 54.51971286 18.40193249 58 12 58 C12 58.66 12 59.32 12 60 C11.10796875 60.33773437 10.2159375 60.67546875 9.296875 61.0234375 C8.12640625 61.46945312 6.9559375 61.91546875 5.75 62.375 C4.58984375 62.81585938 3.4296875 63.25671875 2.234375 63.7109375 C-1.17335649 65.01643567 -1.17335649 65.01643567 -5 67 C-10.28 55.45 -15.56 43.9 -21 32 C-25.53460431 33.13365108 -26.90024653 34.64193374 -30 38 C-33.15133488 36.16172132 -36.11964908 34.24027294 -39 32 C-37.45320161 27.15704791 -34.66015744 23.75374621 -31.5 19.875 C-30.50952575 18.64394544 -29.51991013 17.41219945 -28.53125 16.1796875 C-28.09361328 15.64069824 -27.65597656 15.10170898 -27.20507812 14.54638672 C-26.06534182 13.08384827 -25.02851911 11.54277866 -24 10 C-23.45085938 10.15726562 -22.90171875 10.31453125 -22.3359375 10.4765625 C-17.46128221 11.56887656 -11.68667279 12.25162267 -7.0546875 10.09375 C-3.33223796 7.17564886 -2.1810299 4.3620598 0 0 Z " fill="#F9F9F9" transform="translate(919,253)"/>
<path d="M0 0 C1.01269044 2.27395034 1.8396092 4.45969117 2.625 6.8125 C5.36028902 14.59035996 8.63384077 22.04675767 12.10400391 29.52270508 C12.47960449 30.33763428 12.85520508 31.15256348 13.2421875 31.9921875 C13.5810498 32.71776855 13.91991211 33.44334961 14.26904297 34.19091797 C15 36 15 36 15 38 C15.66 38 16.32 38 17 38 C17.2475 36.72125 17.495 35.4425 17.75 34.125 C18.72409938 29.73469293 20.19788727 25.74856026 21.92578125 21.60546875 C24.97591796 14.20750081 27.52122264 6.60533964 30 -1 C35.72442913 -0.25333533 41.34698055 0.8361623 47 2 C44.35373764 10.44551816 41.00290869 18.57850406 37.625 26.75 C37.31897858 27.49277191 37.01295715 28.23554382 36.69766235 29.00082397 C31.86264748 40.72274104 26.81645692 52.33273217 21.56738281 63.875 C19.07012433 69.36680653 16.61242203 74.86398401 14.29296875 80.43359375 C13.88087158 81.42125732 13.46877441 82.4089209 13.04418945 83.42651367 C12.28710917 85.25479379 11.53894869 87.08680369 10.80151367 88.9230957 C10.47256104 89.71675537 10.1436084 90.51041504 9.8046875 91.328125 C9.38678955 92.36308105 9.38678955 92.36308105 8.96044922 93.41894531 C8 95 8 95 5 96 C4.29875 95.071875 3.5975 94.14375 2.875 93.1875 C0.32684378 90.09904705 -2.28351447 88.55573813 -6 87 C-5.42958737 83.20172297 -4.370449 80.60506168 -2.3125 77.375 C-1.78140625 76.51261719 -1.2503125 75.65023437 -0.703125 74.76171875 C-0.14109375 73.85035156 0.4209375 72.93898438 1 72 C2.16530706 70.07414961 3.31165595 68.13668328 4.4375 66.1875 C5.20900391 64.87845703 5.20900391 64.87845703 5.99609375 63.54296875 C7.8210677 58.92017483 5.66442021 54.87251818 3.8125 50.4921875 C3.36519531 49.4314502 2.91789062 48.37071289 2.45703125 47.27783203 C1.73580078 45.59343018 1.73580078 45.59343018 1 43.875 C0.50886719 42.72241699 0.01773437 41.56983398 -0.48828125 40.38232422 C-3.55073786 33.24549463 -6.69368728 26.15231078 -10 19.125 C-10.3609375 18.35397949 -10.721875 17.58295898 -11.09375 16.78857422 C-12.80127168 13.21911011 -14.5716873 10.14162955 -17 7 C-17 6.34 -17 5.68 -17 5 C-12.05 3.515 -12.05 3.515 -7 2 C-7 1.34 -7 0.68 -7 0 C-3.98968256 -0.93423645 -3.13349732 -1.04449911 0 0 Z " fill="#050505" transform="translate(409,194)"/>
<path d="M0 0 C0.484375 3.08984375 0.484375 3.08984375 0.75 6.9375 C0.84796875 8.20464844 0.9459375 9.47179687 1.046875 10.77734375 C1 14 1 14 -1 16 C-3.42505309 17.21252655 -5.2051359 18.05128155 -7.9375 17.875 C-10 17 -10 17 -12.625 14.9375 C-17.10186297 12.36744904 -20.93479305 12.41812124 -26 13 C-27.25676839 14.04703565 -27.25676839 14.04703565 -27.25 16.375 C-26.948854 19.53703305 -26.38516137 20.01630473 -24 22 C-21.99696717 23.0571727 -21.99696717 23.0571727 -19.76171875 23.90234375 C-18.94123047 24.23556641 -18.12074219 24.56878906 -17.27539062 24.91210938 C-16.42138672 25.25048828 -15.56738281 25.58886719 -14.6875 25.9375 C-0.44387806 31.59353656 -0.44387806 31.59353656 2.875 37.125 C4.92718103 42.80514392 4.86820532 48.69925591 2.75 54.3125 C2.1725 55.199375 1.595 56.08625 1 57 C0.443125 57.86625 -0.11375 58.7325 -0.6875 59.625 C-6.05314912 65.13566666 -13.03258532 67.16009574 -20.5625 67.375 C-28.83256719 67.28131232 -34.43670751 65.48177927 -40.390625 59.6640625 C-42.34538904 57.49741844 -44.20577994 55.30041064 -46 53 C-44.49017269 49.57143381 -42.48286031 47.04321784 -40 44.25 C-39.29875 43.45078125 -38.5975 42.6515625 -37.875 41.828125 C-36 40 -36 40 -34 40 C-32.41152137 42.20571604 -31.04182517 44.51217315 -29.6328125 46.8359375 C-27.858887 49.18702536 -26.77399876 50.07183785 -24 51 C-21.21421299 51.01550531 -18.76466658 50.49854643 -16 50 C-14.64381501 48.87465895 -14.64381501 48.87465895 -14.9375 45.9375 C-14.958125 44.968125 -14.97875 43.99875 -15 43 C-19.47340404 40.72109606 -23.94475242 38.59583426 -28.5625 36.625 C-35.26361484 33.58072622 -40.91113235 29.68243208 -44.33984375 22.98828125 C-46.10428271 17.67408343 -45.86201406 12.72402811 -43.375 7.75 C-42.59125 6.8425 -41.8075 5.935 -41 5 C-40.55269531 4.46375 -40.10539063 3.9275 -39.64453125 3.375 C-31.00812338 -6.25702593 -10.97724542 -5.48862271 0 0 Z " fill="#090909" transform="translate(775,192)"/>
<path d="M0 0 C6.27 0 12.54 0 19 0 C19 7.875 19 7.875 18.5625 11.18359375 C18.48128906 11.81579834 18.40007812 12.44800293 18.31640625 13.09936523 C18.21199219 13.87094971 18.10757812 14.64253418 18 15.4375 C17.67 17.933125 17.34 20.42875 17 23 C22.28 22.34 27.56 21.68 33 21 C33 26.94 33 32.88 33 39 C27.39 38.34 21.78 37.68 16 37 C16.11978302 41.37845166 16.24238084 45.75663075 16.37231445 50.13476562 C16.41566589 51.62462641 16.45734084 53.11453695 16.49731445 54.60449219 C16.55501215 56.74429327 16.61870755 58.88384385 16.68359375 61.0234375 C16.72025146 62.31169434 16.75690918 63.59995117 16.79467773 64.92724609 C16.79530675 67.9127682 16.79530675 67.9127682 18 70 C23.32170494 70.29562367 23.32170494 70.29562367 28 68 C29.32 68 30.64 68 32 68 C35.0553841 73.25526065 35.0553841 73.25526065 34.81640625 76.46875 C33.53246426 80.44958451 31.24797316 82.17073161 27.94140625 84.6015625 C22.28144788 87.2924856 16.08040282 87.09032526 10 86 C5.30045455 83.29873006 1.10669483 80.48709887 -0.60180664 75.10375977 C-1.91511656 69.37653872 -2.27810456 63.98937986 -2.1875 58.125 C-2.18105469 57.25456055 -2.17460937 56.38412109 -2.16796875 55.48730469 C-2.09407762 49.29199498 -1.78987246 43.14972127 -1 37 C-2.485 37.495 -2.485 37.495 -4 38 C-6.31 38 -8.62 38 -11 38 C-11 32.72 -11 27.44 -11 22 C-7.04 22.33 -3.08 22.66 1 23 C0.67 15.41 0.34 7.82 0 0 Z " fill="#060606" transform="translate(351,173)"/>
<path d="M0 0 C-0.00333092 1.51644356 -0.00333092 1.51644356 -0.00672913 3.06352234 C-0.02709306 12.63968087 -0.04203556 22.21583495 -0.05181217 31.79201031 C-0.05700754 36.7139699 -0.06404368 41.63591187 -0.07543945 46.55786133 C-0.08638817 51.31707238 -0.09230197 56.07626659 -0.09487724 60.83548927 C-0.09671006 62.64174476 -0.10028859 64.44799944 -0.10573006 66.25424767 C-0.13458293 76.23826624 0.07043445 86.05139709 1 96 C-10.385 95.505 -10.385 95.505 -22 95 C-22 90 -22 90 -21 89 C-18.24904288 72.77252965 -18.72623822 56.23973066 -18.80438232 39.84069824 C-18.8153027 36.94408802 -18.81484769 34.0475243 -18.81424427 31.15089703 C-18.81451651 28.33955063 -18.82000306 25.52823433 -18.82724571 22.71689796 C-18.83192537 20.74386074 -18.83369805 18.7708173 -18.83540344 16.79777527 C-18.84497322 14.9984832 -18.84497322 14.9984832 -18.85473633 13.1628418 C-18.85854813 12.11428513 -18.86235992 11.06572845 -18.86628723 9.98539734 C-19.0035718 6.92025272 -19.43430286 4.01310696 -20 1 C-17.60429729 0.8312461 -15.20846637 0.66493164 -12.8125 0.5 C-12.13896484 0.45230469 -11.46542969 0.40460938 -10.77148438 0.35546875 C-7.17165927 0.10962704 -3.60702612 -0.02177827 0 0 Z " fill="#090909" transform="translate(486,161)"/>
<path d="M0 0 C0.02685412 2.31243792 0.04632841 4.6249627 0.0625 6.9375 C0.07410156 8.22527344 0.08570313 9.51304687 0.09765625 10.83984375 C0 14 0 14 -1 15 C-3.01965493 15.21946324 -5.04078717 15.42538197 -7.0625 15.625 C-13.14731259 16.48088573 -16.30661361 18.12685369 -20.51171875 22.5390625 C-22 24 -22 24 -24 24 C-23.68811652 28.3958773 -23.3753767 32.79169329 -23.0625 37.1875 C-22.97548828 38.41404297 -22.88847656 39.64058594 -22.79882812 40.90429688 C-22.22647455 48.93844519 -21.62463797 56.96974428 -21 65 C-28.26 64.67 -35.52 64.34 -43 64 C-41.08144177 50.44218851 -41.08144177 50.44218851 -40.47705078 47.16064453 C-39.6426374 41.6323356 -39.80957266 36.08096936 -39.8125 30.5 C-39.81185547 29.24799805 -39.81121094 27.99599609 -39.81054688 26.70605469 C-39.85900994 18.24043811 -40.41372889 10.32792332 -42 2 C-35.73 1.34 -29.46 0.68 -23 0 C-23 1.65 -23 3.3 -23 5 C-22.40985107 4.81300537 -21.81970215 4.62601074 -21.21166992 4.43334961 C-18.53971231 3.59229949 -15.86375378 2.76477242 -13.1875 1.9375 C-11.7943457 1.49567383 -11.7943457 1.49567383 -10.37304688 1.04492188 C-9.48037109 0.77099609 -8.58769531 0.49707031 -7.66796875 0.21484375 C-6.84578857 -0.04176025 -6.0236084 -0.29836426 -5.17651367 -0.56274414 C-3 -1 -3 -1 0 0 Z " fill="#070707" transform="translate(831,192)"/>
<path d="M0 0 C0.79921875 0.01804688 1.5984375 0.03609375 2.421875 0.0546875 C3.02515625 0.07789063 3.6284375 0.10109375 4.25 0.125 C3.26 1.61 3.26 1.61 2.25 3.125 C1.84513366 5.24227557 1.53835284 7.37881546 1.28515625 9.51953125 C1.20735931 10.16636871 1.12956238 10.81320618 1.04940796 11.47964478 C0.79441061 13.63128614 0.55282646 15.78417376 0.3125 17.9375 C0.22662628 18.68274933 0.14075256 19.42799866 0.05227661 20.1958313 C-1.52512865 33.90513834 -2.6511921 47.63685054 -3.67114258 61.3972168 C-4.37901406 70.87562018 -5.25816749 80.30905163 -6.375 89.75 C-7.48540474 99.13758471 -8.20036721 108.46137405 -8.55859375 117.90625 C-8.73062134 122.31015635 -9.17318851 126.6633629 -9.76171875 131.03125 C-9.74767903 133.53968051 -9.01696426 134.98912155 -7.75 137.125 C-9.37463842 137.17895478 -10.99978541 137.21777195 -12.625 137.25 C-13.52992187 137.27320313 -14.43484375 137.29640625 -15.3671875 137.3203125 C-17.75 137.125 -17.75 137.125 -19.75 135.125 C-19.98046875 132.8046875 -19.98046875 132.8046875 -19.9375 130 C-19.93105469 129.08992187 -19.92460938 128.17984375 -19.91796875 127.2421875 C-19.75 124.125 -19.75 124.125 -19.26171875 120.4921875 C-18.55417678 115.13661959 -18.51550804 109.76944675 -18.375 104.375 C-18.0324204 93.50043348 -17.08152048 82.77866443 -15.83642578 71.97338867 C-15.11846836 65.70817761 -14.51970066 59.4876463 -14.25 53.1875 C-13.90891875 46.14312801 -12.98839134 39.27968779 -11.90405273 32.31347656 C-11.17741168 27.53476888 -10.60737898 22.79033762 -10.25 17.96875 C-10.17450928 16.96094482 -10.09901855 15.95313965 -10.02124023 14.91479492 C-9.88439317 12.9629236 -9.76353572 11.00985085 -9.66040039 9.0559082 C-9.59844482 8.17765381 -9.53648926 7.29939941 -9.47265625 6.39453125 C-9.42890869 5.61698486 -9.38516113 4.83943848 -9.34008789 4.03833008 C-8.75 2.125 -8.75 2.125 -6.85229492 0.87036133 C-4.43473478 0.01322382 -2.55768797 -0.07522612 0 0 Z " fill="#F79629" transform="translate(94.75,152.875)"/>
<path d="M0 0 C3.625 0.375 3.625 0.375 6.0625 2.0625 C7.89527568 4.77500801 8.05872673 6.16542223 7.625 9.375 C7.295 9.705 6.965 10.035 6.625 10.375 C6.45833333 13.375 6.45833333 13.375 6.625 16.375 C8.20772601 17.95772601 10.00534003 17.72235747 12.1875 17.9375 C13.01378906 18.02128906 13.84007812 18.10507813 14.69140625 18.19140625 C15.64853516 18.28228516 15.64853516 18.28228516 16.625 18.375 C17.12 16.89 17.12 16.89 17.625 15.375 C25.22815896 15.25410171 32.78307268 15.41328371 40.375 15.8125 C41.57261963 15.87135376 41.57261963 15.87135376 42.79443359 15.93139648 C48.50380977 16.25380977 48.50380977 16.25380977 49.625 17.375 C49.72486975 20.21835048 49.76377881 23.03197163 49.75 25.875 C49.75386719 26.67292969 49.75773438 27.47085937 49.76171875 28.29296875 C49.75160767 34.24839233 49.75160767 34.24839233 48.625 35.375 C47.10571962 35.44679964 45.58332518 35.45892007 44.0625 35.4375 C43.23621094 35.42847656 42.40992188 35.41945313 41.55859375 35.41015625 C40.92050781 35.39855469 40.28242187 35.38695312 39.625 35.375 C40.07939453 36.35895752 40.53378906 37.34291504 41.00195312 38.35668945 C42.68492073 42.00495348 44.36042759 45.65660264 46.03369141 49.30932617 C46.75919508 50.89033989 47.48672391 52.47042592 48.21630859 54.04956055 C49.264121 56.31839516 50.30462597 58.59045675 51.34375 60.86328125 C51.67185669 61.56963211 51.99996338 62.27598297 52.3380127 63.0037384 C53.686098 65.9685089 54.625 68.07863935 54.625 71.375 C53.82916504 71.74262451 53.03333008 72.11024902 52.21337891 72.48901367 C49.21215462 73.87628982 46.21158577 75.26496553 43.21142578 76.65454102 C41.92196529 77.25144213 40.63225873 77.84781203 39.34228516 78.44360352 C37.46969948 79.30860133 35.5980555 80.17560976 33.7265625 81.04296875 C33.11540588 81.32486053 32.50424927 81.60675232 31.87457275 81.89718628 C27.38985076 83.9790824 23.01632906 86.2278022 18.68896484 88.6184082 C16.17018497 89.54172247 15.0640806 89.46510265 12.625 88.375 C11.0972623 85.8954101 9.84396367 83.5625736 8.625 80.9375 C8.27542236 80.21119385 7.92584473 79.4848877 7.56567383 78.73657227 C5.01164045 73.37161206 2.73447376 67.92892851 0.625 62.375 C-0.35378137 60.03185671 -1.36246505 57.70383038 -2.375 55.375 C-3.1175 56.179375 -3.86 56.98375 -4.625 57.8125 C-8.3555895 61.28873113 -8.3555895 61.28873113 -11.375 61.375 C-14.171875 59.50390625 -14.171875 59.50390625 -17.125 56.9375 C-18.10984375 56.09316406 -19.0946875 55.24882812 -20.109375 54.37890625 C-20.85703125 53.71761719 -21.6046875 53.05632812 -22.375 52.375 C-21.90060894 47.63108937 -19.66724637 44.71201416 -16.75 41.125 C-15.83694691 39.97939987 -14.92418797 38.83356524 -14.01171875 37.6875 C-13.56231934 37.12804687 -13.11291992 36.56859375 -12.64990234 35.9921875 C-10.34466121 33.06803636 -8.19808628 30.02037604 -6.04296875 26.984375 C-3.91339198 24.92960772 -2.25764419 24.78946742 0.625 24.375 C2.56532404 23.18604764 2.56532404 23.18604764 3.625 21.375 C3.33014846 19.52233927 3.33014846 19.52233927 2.625 17.375 C2.35631456 12.53866209 2.86373407 8.88824394 4.625 4.375 C2.315 4.045 0.005 3.715 -2.375 3.375 C-2.705 5.025 -3.035 6.675 -3.375 8.375 C-5.85 7.88 -5.85 7.88 -8.375 7.375 C-7.715 7.045 -7.055 6.715 -6.375 6.375 C-6.03157551 5.04423011 -5.69880126 3.71068021 -5.375 2.375 C-3.375 0.375 -3.375 0.375 0 0 Z M17.78662109 21.0859375 C16.5617798 23.13500176 15.59325073 25.19609694 14.625 27.375 C12.2831763 29.73540961 11.26295719 30.29619352 7.96875 30.703125 C7.0303125 30.67734375 6.091875 30.6515625 5.125 30.625 C3.71734375 30.60179687 3.71734375 30.60179687 2.28125 30.578125 C-0.07542012 30.39790905 -2.10202954 29.97894689 -4.375 29.375 C-6.5095591 32.0968096 -8.63088094 34.82865759 -10.75 37.5625 C-11.35328125 38.33142578 -11.9565625 39.10035156 -12.578125 39.89257812 C-13.15820312 40.64345703 -13.73828125 41.39433594 -14.3359375 42.16796875 C-14.87009277 42.8539917 -15.40424805 43.54001465 -15.95458984 44.24682617 C-17.48299944 46.53681352 -18.43977008 48.79226589 -19.375 51.375 C-14.9725524 55.53325278 -14.9725524 55.53325278 -9.375 57.375 C-8.611875 56.385 -7.84875 55.395 -7.0625 54.375 C-5.76171875 52.6875 -5.76171875 52.6875 -4.375 51.375 C-3.385 51.375 -2.395 51.375 -1.375 51.375 C3.905 62.925 9.185 74.475 14.625 86.375 C16.605 85.385 16.605 85.385 18.625 84.375 C20.86760191 83.48120938 23.11829129 82.60754931 25.375 81.75 C26.54546875 81.30398438 27.7159375 80.85796875 28.921875 80.3984375 C29.81390625 80.06070313 30.7059375 79.72296875 31.625 79.375 C31.625 78.715 31.625 78.055 31.625 77.375 C32.32238281 77.26027344 33.01976562 77.14554688 33.73828125 77.02734375 C36.94481182 76.30272859 39.78110951 75.20654173 42.8125 73.9375 C43.85792969 73.50566406 44.90335938 73.07382812 45.98046875 72.62890625 C48.7060292 71.51795591 48.7060292 71.51795591 50.625 69.375 C50.25150683 65.11661197 48.47585913 61.50419783 46.71875 57.6484375 C46.43398804 57.01894196 46.14922607 56.38944641 45.85583496 55.74087524 C44.95044927 53.7416524 44.03806201 51.7457271 43.125 49.75 C42.2132532 47.7465627 41.30299061 45.74246553 40.39416504 43.73770142 C39.57089747 41.92331589 38.74355872 40.11077929 37.91601562 38.29833984 C36.625 35.375 36.625 35.375 35.625 32.375 C39.255 32.375 42.885 32.375 46.625 32.375 C46.625 28.085 46.625 23.795 46.625 19.375 C42.22655428 19.15912536 37.83865939 19.00055523 33.4375 18.875 C32.19162109 18.80796875 30.94574219 18.7409375 29.66210938 18.671875 C23.21299249 18.25886936 23.21299249 18.25886936 17.78662109 21.0859375 Z " fill="#212121" transform="translate(899.375,233.625)"/>
<path d="M0 0 C1.61551758 -0.0609082 1.61551758 -0.0609082 3.26367188 -0.12304688 C11.59083747 -0.15835285 16.49506998 2.18581665 22.6875 7.6875 C27.658792 12.90129405 27.81407876 16.80228304 27.78515625 23.859375 C27.7837413 24.5417926 27.78232635 25.22421021 27.78086853 25.92730713 C27.77529084 28.09741684 27.76274254 30.2674217 27.75 32.4375 C27.74498211 33.91275892 27.74041971 35.38801947 27.73632812 36.86328125 C27.72532875 40.47138798 27.70807953 44.07943375 27.6875 47.6875 C25.2125 48.1825 25.2125 48.1825 22.6875 48.6875 C22.657771 47.42474243 22.657771 47.42474243 22.62744141 46.13647461 C22.54890205 42.98470324 22.46219505 39.83328745 22.37011719 36.68188477 C22.33205921 35.32324737 22.29716779 33.96451715 22.265625 32.60571289 C22.21946786 30.64187081 22.16061503 28.67834037 22.1015625 26.71484375 C22.0701416 25.53656006 22.0387207 24.35827637 22.00634766 23.14428711 C21.60344372 18.77620382 21.08470182 14.33446069 18.1796875 10.91015625 C17.64601562 10.52730469 17.11234375 10.14445313 16.5625 9.75 C15.61375 9.069375 14.665 8.38875 13.6875 7.6875 C13.3575 8.0175 13.0275 8.3475 12.6875 8.6875 C13.3475 9.55375 14.0075 10.42 14.6875 11.3125 C17.97419651 16.90219864 16.99977024 23.43342104 16.6875 29.6875 C15.0375 29.6875 13.3875 29.6875 11.6875 29.6875 C11.67332031 28.83027344 11.65914062 27.97304687 11.64453125 27.08984375 C11.33411623 19.64827278 10.82668347 15.193768 5.6875 9.6875 C2.43610351 7.51990234 1.45627984 7.22511735 -2.3125 7.6875 C-5.6429229 9.6783046 -7.53851605 12.2678297 -9.3125 15.6875 C-10.28978286 21.03437193 -10.29489184 26.26727106 -10.25 31.6875 C-10.26312815 33.14456301 -10.27937759 34.60160142 -10.29882812 36.05859375 C-10.33940522 39.60200056 -10.33763883 43.14387896 -10.3125 46.6875 C-12.7875 47.1825 -12.7875 47.1825 -15.3125 47.6875 C-15.4117963 43.09771962 -15.48416748 38.50857212 -15.53222656 33.91796875 C-15.55227222 32.35828756 -15.57951657 30.79868087 -15.61425781 29.23925781 C-15.66309126 26.99004686 -15.68553815 24.7418341 -15.703125 22.4921875 C-15.72377014 21.8013205 -15.74441528 21.11045349 -15.76568604 20.39865112 C-15.76800257 15.33632337 -14.38329477 12.63413512 -11.3125 8.6875 C-10.6525 7.6975 -9.9925 6.7075 -9.3125 5.6875 C-14.46381962 8.8022514 -18.55425894 12.17101788 -21.3125 17.6875 C-21.54108114 19.7249763 -21.72274278 21.76790303 -21.875 23.8125 C-21.95878906 24.90820312 -22.04257813 26.00390625 -22.12890625 27.1328125 C-22.18949219 27.97585937 -22.25007813 28.81890625 -22.3125 29.6875 C-23.9625 29.6875 -25.6125 29.6875 -27.3125 29.6875 C-27.71688588 20.56635187 -27.39961827 15.06091755 -22.0625 7.5 C-15.26083081 0.54374742 -9.40914303 -0.01671251 0 0 Z " fill="#292724" transform="translate(133.3125,122.3125)"/>
<path d="M0 0 C0.90298828 -0.01160156 1.80597656 -0.02320313 2.73632812 -0.03515625 C10.13431649 -0.00301437 16.74098068 1.17473018 22.4375 6.3125 C23.26894531 7.03759766 23.26894531 7.03759766 24.1171875 7.77734375 C28.76633418 12.91653562 28.69051324 19.46811355 28.66015625 26.0859375 C28.65693359 27.32988281 28.65371094 28.57382813 28.65039062 29.85546875 C28.63782227 31.78326172 28.63782227 31.78326172 28.625 33.75 C28.62048828 35.05839844 28.61597656 36.36679688 28.61132812 37.71484375 C28.59957594 40.93494281 28.58314543 44.1549477 28.5625 47.375 C26.625 47.9375 26.625 47.9375 24.5625 48.375 C22.67843235 46.49093235 23.40909667 43.21545118 23.38671875 40.70703125 C23.36350325 39.32485485 23.33938523 37.94269337 23.31445312 36.56054688 C23.27945848 34.37937706 23.2500696 32.1987492 23.23657227 30.01733398 C23.22100048 27.9132259 23.18071914 25.81071278 23.13671875 23.70703125 C23.12213623 22.44608643 23.10755371 21.1851416 23.0925293 19.88598633 C22.46885308 15.75467 21.1864759 13.59429949 18.5625 10.375 C15.46235071 8.48931306 15.46235071 8.48931306 12.5625 7.375 C13.201875 8.48875 13.84125 9.6025 14.5 10.75 C17.15329929 15.37187618 17.67470155 18.03282943 17.625 23.5 C17.61597656 24.78132813 17.60695312 26.06265625 17.59765625 27.3828125 C17.58605469 28.37023437 17.57445312 29.35765625 17.5625 30.375 C15.9125 30.375 14.2625 30.375 12.5625 30.375 C12.50642578 29.07175781 12.50642578 29.07175781 12.44921875 27.7421875 C12.09861002 19.10194114 12.09861002 19.10194114 8.5625 11.375 C8.02625 10.570625 7.49 9.76625 6.9375 8.9375 C3.67003019 6.78784881 1.37646811 7.22202 -2.4140625 7.625 C-4.56972309 8.18869677 -4.56972309 8.18869677 -5.5234375 10.125 C-5.82507813 10.8675 -6.12671875 11.61 -6.4375 12.375 C-6.94079834 13.10098389 -7.44409668 13.82696777 -7.96264648 14.57495117 C-9.78589607 18.03643925 -9.86622043 20.52486004 -9.94921875 24.42578125 C-9.96716995 25.08458786 -9.98512115 25.74339447 -10.00361633 26.42216492 C-10.05746656 28.51054631 -10.09153108 30.5987026 -10.125 32.6875 C-10.1581957 34.1100572 -10.19268744 35.53258479 -10.22851562 36.95507812 C-10.31317601 40.42816915 -10.3801077 43.90133913 -10.4375 47.375 C-11.7575 47.375 -13.0775 47.375 -14.4375 47.375 C-14.51199251 42.92760587 -14.56626257 38.4805481 -14.60229492 34.03271484 C-14.61732543 32.52158273 -14.63775564 31.01049382 -14.66381836 29.49951172 C-14.70045689 27.31987813 -14.71728338 25.14082425 -14.73046875 22.9609375 C-14.7461792 21.6517334 -14.76188965 20.3425293 -14.77807617 18.99365234 C-14.32238056 14.15184564 -12.87867363 10.81617363 -9.4375 7.375 C-12.76562571 7.94881478 -14.13592455 8.96880748 -16.4375 11.375 C-17.0975 11.375 -17.7575 11.375 -18.4375 11.375 C-20.06599969 15.73090568 -20.77868446 19.61434612 -21.0625 24.25 C-21.17464844 25.97863281 -21.17464844 25.97863281 -21.2890625 27.7421875 C-21.33804688 28.61101562 -21.38703125 29.47984375 -21.4375 30.375 C-23.0875 30.375 -24.7375 30.375 -26.4375 30.375 C-26.87558353 19.58516498 -26.20058769 13.40546417 -19.328125 4.953125 C-13.43356833 0.03287522 -7.34987851 -0.0940283 0 0 Z " fill="#251F1B" transform="translate(186.4375,184.625)"/>
<path d="M0 0 C0.90105469 0.02707031 1.80210937 0.05414063 2.73046875 0.08203125 C3.76107422 0.13423828 3.76107422 0.13423828 4.8125 0.1875 C4.4825 0.8475 4.1525 1.5075 3.8125 2.1875 C3.71534731 4.42343619 3.68452898 6.66234522 3.68310547 8.90039062 C3.68135315 9.5899736 3.67960083 10.27955658 3.67779541 10.99003601 C3.673386 13.27463277 3.67631168 15.55915242 3.6796875 17.84375 C3.6790142 19.42793798 3.67804395 21.01212585 3.67678833 22.59631348 C3.67531259 25.9185484 3.67746194 29.24075647 3.68212891 32.56298828 C3.68782612 36.82705066 3.68454646 41.0910501 3.67855644 45.35511017 C3.67494749 48.62697832 3.67609096 51.89883148 3.67868423 55.17070007 C3.67935258 56.74322009 3.6785283 58.31574145 3.67620468 59.88825989 C3.6736727 62.08374652 3.67752647 64.27913042 3.68310547 66.47460938 C3.68390106 67.72544312 3.68469666 68.97627686 3.68551636 70.26501465 C3.61064308 73.12375724 3.61064308 73.12375724 4.8125 75.1875 C3.20870659 75.24166188 1.60438594 75.28036638 0 75.3125 C-0.89332031 75.33570313 -1.78664062 75.35890625 -2.70703125 75.3828125 C-5.1875 75.1875 -5.1875 75.1875 -8.1875 73.1875 C-8.56845093 70.30970764 -8.56845093 70.30970764 -8.57568359 66.58227539 C-8.58094055 65.90405228 -8.58619751 65.22582916 -8.59161377 64.52705383 C-8.60484425 62.27952204 -8.59606457 60.03269557 -8.5859375 57.78515625 C-8.58795761 56.22578292 -8.59086852 54.6664105 -8.59463501 53.10704041 C-8.59906267 49.83599875 -8.59261422 46.5652026 -8.57861328 43.29418945 C-8.56153504 39.09955035 -8.57135077 34.90548765 -8.58933067 30.71086979 C-8.60016883 27.48953404 -8.59672183 24.26833502 -8.5889473 21.04699516 C-8.58694463 19.50042083 -8.58940691 17.95383413 -8.59638596 16.40727425 C-8.60399969 14.24522133 -8.5923981 12.08410244 -8.57568359 9.92211914 C-8.57329681 8.6912709 -8.57091003 7.46042267 -8.56845093 6.192276 C-8.1875 3.1875 -8.1875 3.1875 -6.81826782 1.28489685 C-4.49824366 -0.27632307 -2.76317996 -0.10765636 0 0 Z " fill="#D53032" transform="translate(147.1875,214.8125)"/>
<path d="M0 0 C0.12375 0.61875 0.2475 1.2375 0.375 1.875 C0.87197356 4.19120832 0.87197356 4.19120832 3 6 C1.906875 6.061875 0.81375 6.12375 -0.3125 6.1875 C-4.14332716 6.6132233 -4.14332716 6.6132233 -5.9375 9.5625 C-6.4634375 10.7690625 -6.4634375 10.7690625 -7 12 C-11.75 11.25 -11.75 11.25 -14 9 C-14.99 9 -15.98 9 -17 9 C-17.45375 9.763125 -17.9075 10.52625 -18.375 11.3125 C-20.36503763 14.60371608 -21.41190118 15.57971088 -25 17 C-30.23617655 17.65552134 -34.56674937 17.62541846 -39.4375 15.5 C-42.6194992 12.39561053 -44.536138 9.19353407 -46 5 C-46 4.01 -46 3.02 -46 2 C-40.41325196 1.97521238 -34.8265362 1.95709848 -29.23974609 1.94506836 C-27.34065188 1.94005115 -25.4415615 1.93323589 -23.54248047 1.92456055 C-20.80695648 1.91238037 -18.07148374 1.90674546 -15.3359375 1.90234375 C-14.49195404 1.89718246 -13.64797058 1.89202118 -12.77841187 1.88670349 C-8.40164158 1.88629046 -4.30995833 2.11911036 0 3 C0 2.01 0 1.02 0 0 Z " fill="#F5F5F5" transform="translate(900,228)"/>
<path d="M0 0 C3.88589611 0.51811948 6.25544975 2.54547719 8.8125 5.375 C13.06020595 11.10492652 12.02178688 16.4685329 11.8125 23.375 C4.5525 23.375 -2.7075 23.375 -10.1875 23.375 C-11.03018548 10.85510142 -11.03018548 10.85510142 -8.6640625 6.69921875 C-6.93056532 4.76406986 -5.18292986 3.03546561 -3.1875 1.375 C-2.1875 0.375 -2.1875 0.375 0 0 Z " fill="#F7F7F5" transform="translate(133.1875,128.625)"/>
<path d="M0 0 C5.38721986 0.11311748 9.60133876 0.97905891 13.875 4.375 C15.9375 7.3125 15.9375 7.3125 16.875 10.375 C16.545 12.025 16.215 13.675 15.875 15.375 C6.635 15.375 -2.605 15.375 -12.125 15.375 C-10.98715328 7.41007293 -8.94515057 0.12458427 0 0 Z " fill="#F0F0F0" transform="translate(866.125,203.625)"/>
<path d="M0 0 C1.98 0 3.96 0 6 0 C5.01 0.33 4.02 0.66 3 1 C3.37809814 1.81154541 3.75619629 2.62309082 4.14575195 3.45922852 C5.56115044 6.49854886 6.97559068 9.53831142 8.3894043 12.57836914 C8.99905259 13.8887663 9.60907149 15.19899112 10.21948242 16.5090332 C11.10174812 18.40269425 11.98263573 20.2969913 12.86328125 22.19140625 C13.39219971 23.32779541 13.92111816 24.46418457 14.46606445 25.63500977 C14.97226318 26.74545654 15.47846191 27.85590332 16 29 C16.42688614 29.92835159 16.42688614 29.92835159 16.86239624 30.87545776 C18.15529429 33.76411488 19 35.79799932 19 39 C18.20416504 39.36762451 17.40833008 39.73524902 16.58837891 40.11401367 C13.58715462 41.50128982 10.58658577 42.88996553 7.58642578 44.27954102 C6.29696529 44.87644213 5.00725873 45.47281203 3.71728516 46.06860352 C1.84469948 46.93360133 -0.0269445 47.80060976 -1.8984375 48.66796875 C-2.50959412 48.94986053 -3.12075073 49.23175232 -3.75042725 49.52218628 C-8.23514924 51.6040824 -12.60867094 53.8528022 -16.93603516 56.2434082 C-19.45481503 57.16672247 -20.5609194 57.09010265 -23 56 C-24.52776963 53.52035828 -25.78123652 51.18773368 -27 48.5625 C-27.34957764 47.83474365 -27.69915527 47.1069873 -28.05932617 46.35717773 C-31.9842773 38.09966679 -35.22336201 29.70854641 -38 21 C-38.66 21 -39.32 21 -40 21 C-40 20.01 -40 19.02 -40 18 C-38.22949219 18.04711914 -38.22949219 18.04711914 -36 19 C-34.57525705 21.42073325 -33.43681686 23.68442725 -32.328125 26.24609375 C-31.83720367 27.33556053 -31.83720367 27.33556053 -31.33636475 28.44703674 C-30.64724593 29.98320345 -29.96514112 31.52253301 -29.28955078 33.06469727 C-28.25299016 35.43067488 -27.19697472 37.78713707 -26.13671875 40.14257812 C-25.47020584 41.63490432 -24.80480311 43.12772696 -24.140625 44.62109375 C-23.82506653 45.32946884 -23.50950806 46.03784393 -23.18438721 46.76768494 C-21 51.76353876 -21 51.76353876 -21 54 C-20.01 53.401875 -19.02 52.80375 -18 52.1875 C-13.84366772 49.80882511 -8.86118455 47 -4 47 C-4 46.34 -4 45.68 -4 45 C-2.95199219 44.59007812 -1.90398438 44.18015625 -0.82421875 43.7578125 C0.55476009 43.21372561 1.93366236 42.66944462 3.3125 42.125 C4.00279297 41.85558594 4.69308594 41.58617187 5.40429688 41.30859375 C8.51013099 40.07826333 11.20982695 38.86011537 14 37 C13.34915902 32.71902435 11.86778311 29.19663559 10.05859375 25.2734375 C9.77146011 24.64394196 9.48432648 24.01444641 9.18849182 23.36587524 C7.96671144 20.68750132 6.73273998 18.01480186 5.49926758 15.34179688 C4.59779188 13.38357418 3.7030145 11.42239011 2.80859375 9.4609375 C2.27032959 8.29353027 1.73206543 7.12612305 1.17749023 5.92333984 C0 3 0 3 0 0 Z " fill="#1C1C1C" transform="translate(935,266)"/>
<path d="M0 0 C4.24548863 1.94977997 6.97365227 3.76939801 8.734375 8.28125 C8.984375 11.03125 8.984375 11.03125 8.734375 13.28125 C7.734375 14.28125 7.734375 14.28125 5.05053711 14.39477539 C3.88272705 14.38953857 2.71491699 14.38430176 1.51171875 14.37890625 C0.25166016 14.37568359 -1.00839844 14.37246094 -2.30664062 14.36914062 C-3.64713609 14.36078403 -4.98763088 14.35231907 -6.328125 14.34375 C-7.67252442 14.3387366 -9.0169256 14.33417342 -10.36132812 14.33007812 C-13.66280441 14.31824488 -16.96419303 14.30175971 -20.265625 14.28125 C-19.82683289 9.76331639 -19.48445514 6.75550986 -16.328125 3.40625 C-15.80347656 2.83132812 -15.27882813 2.25640625 -14.73828125 1.6640625 C-10.78445746 -2.04854658 -4.90626036 -1.55646881 0 0 Z " fill="#F1F1F1" transform="translate(695.265625,204.71875)"/>
<path d="M0 0 C3.41346651 1.82967591 6.2248036 3.75038845 7.96875 7.23828125 C8.21875 10.42578125 8.21875 10.42578125 7.96875 13.23828125 C6.96875 14.23828125 6.96875 14.23828125 4.37670898 14.35180664 C3.25079346 14.34656982 2.12487793 14.34133301 0.96484375 14.3359375 C-0.25009766 14.33271484 -1.46503906 14.32949219 -2.71679688 14.32617188 C-3.99619141 14.31779297 -5.27558594 14.30941406 -6.59375 14.30078125 C-7.87701172 14.29626953 -9.16027344 14.29175781 -10.48242188 14.28710938 C-13.66541022 14.2752767 -16.84830762 14.25879193 -20.03125 14.23828125 C-20.2333191 8.87222395 -19.49712615 6.45353602 -16.03125 2.23828125 C-11.46318483 -1.67720318 -5.56410397 -2.08653899 0 0 Z " fill="#F3F3F3" transform="translate(536.03125,204.76171875)"/>
<path d="M0 0 C7.60315896 -0.12089829 15.15807268 0.03828371 22.75 0.4375 C23.54841309 0.47673584 24.34682617 0.51597168 25.16943359 0.55639648 C30.87880977 0.87880977 30.87880977 0.87880977 32 2 C32.09986975 4.84335048 32.13877881 7.65697163 32.125 10.5 C32.13080078 11.69689453 32.13080078 11.69689453 32.13671875 12.91796875 C32.12660767 18.87339233 32.12660767 18.87339233 31 20 C29.31816052 20.23287008 27.6287584 20.41264166 25.9375 20.5625 C24.55884766 20.68818359 24.55884766 20.68818359 23.15234375 20.81640625 C22.44207031 20.87699219 21.73179687 20.93757813 21 21 C21 20.01 21 19.02 21 18 C24.96 17.505 24.96 17.505 29 17 C29 12.71 29 8.42 29 4 C20.09 4 11.18 4 2 4 C1.34 5.98 0.68 7.96 0 10 C-1.4375 12.4375 -1.4375 12.4375 -4 14 C-7.72655378 14.02688711 -11.32372091 13.58313392 -15 13 C-13.79618552 10.50638429 -12.54571278 8.31856917 -11 6 C-8.8359375 5.70703125 -8.8359375 5.70703125 -6.375 5.8125 C-5.55773437 5.83957031 -4.74046875 5.86664063 -3.8984375 5.89453125 C-3.27195312 5.92933594 -2.64546875 5.96414062 -2 6 C-2 5.34 -2 4.68 -2 4 C-4.97 4 -7.94 4 -11 4 C-10.67 3.34 -10.34 2.68 -10 2 C-7.03 2.33 -4.06 2.66 -1 3 C-0.67 2.01 -0.34 1.02 0 0 Z " fill="#262626" transform="translate(917,249)"/>
<path d="M0 0 C4.85985422 0.7407818 6.76631429 2.24193283 10 6 C12.19772818 9.43631038 12.21263524 12.21877882 12.125 16.25 C12.10695312 17.32765625 12.08890625 18.4053125 12.0703125 19.515625 C12.04710937 20.33546875 12.02390625 21.1553125 12 22 C8.37 22 4.74 22 1 22 C0.02700844 17.14270355 -0.12038805 12.5499375 -0.0625 7.625 C-0.05798828 6.88894531 -0.05347656 6.15289062 -0.04882812 5.39453125 C-0.03715142 3.59631842 -0.01922011 1.79814803 0 0 Z " fill="#F7F4F2" transform="translate(187,192)"/>
<path d="M0 0 C0.33 0.66 0.66 1.32 1 2 C-0.65 1.67 -2.3 1.34 -4 1 C-3.67 8.26 -3.34 15.52 -3 23 C-6.63 23 -10.26 23 -14 23 C-14.86059399 9.21137181 -14.86059399 9.21137181 -11.75 4.75 C-7.7513847 0.7513847 -5.64640573 -0.31368921 0 0 Z " fill="#F1AC2B" transform="translate(191,191)"/>
<path d="M0 0 C1.32 0.66 2.64 1.32 4 2 C4 2.99 4 3.98 4 5 C2.68 4.67 1.36 4.34 0 4 C-0.226875 4.52722656 -0.45375 5.05445313 -0.6875 5.59765625 C-2.78604659 9.43874599 -5.62913365 12.73566735 -8.3671875 16.13476562 C-10.86016381 19.29524003 -12.73877271 22.16615568 -14 26 C-10.01860176 29.74674617 -10.01860176 29.74674617 -5 31 C-2.22877725 28.64573501 -2.22877725 28.64573501 0 26 C0 26.66 0 27.32 0 28 C0.66 28.33 1.32 28.66 2 29 C-0.97 32.465 -0.97 32.465 -4 36 C-8.24817476 34.93795631 -9.93395323 33.68632824 -13.25 30.9375 C-14.14203125 30.20402344 -15.0340625 29.47054688 -15.953125 28.71484375 C-16.62859375 28.14894531 -17.3040625 27.58304687 -18 27 C-17.52552689 22.25526885 -15.29113745 19.3383951 -12.375 15.75 C-11.92785645 15.18514893 -11.48071289 14.62029785 -11.02001953 14.03833008 C-10.11579679 12.8966396 -9.20811175 11.75768216 -8.296875 10.62158203 C-6.46408969 8.32991034 -4.67015874 6.00869911 -2.875 3.6875 C-1.91703899 2.45804313 -0.95886875 1.22874903 0 0 Z " fill="#2F2F2F" transform="translate(895,259)"/>
<path d="M0 0 C1.98 0 3.96 0 6 0 C5.01 0.33 4.02 0.66 3 1 C3.37809814 1.81154541 3.75619629 2.62309082 4.14575195 3.45922852 C5.56115044 6.49854886 6.97559068 9.53831142 8.3894043 12.57836914 C8.99905259 13.8887663 9.60907149 15.19899112 10.21948242 16.5090332 C11.10174812 18.40269425 11.98263573 20.2969913 12.86328125 22.19140625 C13.39219971 23.32779541 13.92111816 24.46418457 14.46606445 25.63500977 C14.97226318 26.74545654 15.47846191 27.85590332 16 29 C16.42688614 29.92835159 16.42688614 29.92835159 16.86239624 30.87545776 C18.15529429 33.76411488 19 35.79799932 19 39 C10.738041 43.59225513 10.738041 43.59225513 6 43 C8.36620011 40.38472619 10.942048 38.73559438 14 37 C13.34915902 32.71902435 11.86778311 29.19663559 10.05859375 25.2734375 C9.77146011 24.64394196 9.48432648 24.01444641 9.18849182 23.36587524 C7.96671144 20.68750132 6.73273998 18.01480186 5.49926758 15.34179688 C4.59779188 13.38357418 3.7030145 11.42239011 2.80859375 9.4609375 C2.27032959 8.29353027 1.73206543 7.12612305 1.17749023 5.92333984 C0 3 0 3 0 0 Z " fill="#212121" transform="translate(935,266)"/>
<path d="M0 0 C0.8971875 0.309375 0.8971875 0.309375 1.8125 0.625 C1.19375 1.346875 0.575 2.06875 -0.0625 2.8125 C-3.51186825 7.37784033 -4.43873456 11.26872412 -4.8125 16.9375 C-4.88726562 18.00613281 -4.96203125 19.07476562 -5.0390625 20.17578125 C-5.08804688 20.98402344 -5.13703125 21.79226562 -5.1875 22.625 C-7.1675 22.625 -9.1475 22.625 -11.1875 22.625 C-11.74103075 9.95529613 -11.74103075 9.95529613 -8.1875 4.625 C-7.5275 4.625 -6.8675 4.625 -6.1875 4.625 C-5.8575 3.635 -5.5275 2.645 -5.1875 1.625 C-2.1875 -0.375 -2.1875 -0.375 0 0 Z " fill="#E49F21" transform="translate(176.1875,191.375)"/>
<path d="M0 0 C3.88999932 0.5762962 6.14170537 2.36736021 9 5 C11.34156439 8.52036565 11.2080629 11.59685504 11.125 15.75 C11.10695312 16.92046875 11.08890625 18.0909375 11.0703125 19.296875 C11.03550781 20.63492188 11.03550781 20.63492188 11 22 C9.02 22 7.04 22 5 22 C4.94392578 20.69675781 4.94392578 20.69675781 4.88671875 19.3671875 C4.44358057 10.77813781 4.44358057 10.77813781 1 3 C0.67 2.01 0.34 1.02 0 0 Z " fill="#EBE9E9" transform="translate(199,192)"/>
<path d="M0 0 C0.33 0 0.66 0 1 0 C1 9.9 1 19.8 1 30 C2.32 30 3.64 30 5 30 C5 20.1 5 10.2 5 0 C5.33 0 5.66 0 6 0 C6.02505615 0.72179443 6.0501123 1.44358887 6.07592773 2.18725586 C6.19151302 5.437535 6.31440774 8.68749688 6.4375 11.9375 C6.47681641 13.07380859 6.51613281 14.21011719 6.55664062 15.38085938 C6.61948242 17.00024414 6.61948242 17.00024414 6.68359375 18.65234375 C6.72025146 19.65257568 6.75690918 20.65280762 6.79467773 21.68334961 C6.74671841 23.96069188 6.74671841 23.96069188 8 25 C7.82364548 27.69082872 7.38164079 30.32851446 7 33 C0.59903382 34.32850242 0.59903382 34.32850242 -1.9375 32.9375 C-3.45334601 30.17331023 -3.32954432 28.09771665 -3 25 C-2.34 24.34 -1.68 23.68 -1 23 C-0.62904292 20.57753405 -0.62904292 20.57753405 -0.5859375 17.7734375 C-0.54726562 16.7421875 -0.50859375 15.7109375 -0.46875 14.6484375 C-0.4378125 13.56820312 -0.406875 12.48796875 -0.375 11.375 C-0.33632812 10.28703125 -0.29765625 9.1990625 -0.2578125 8.078125 C-0.16333753 5.38558835 -0.07777569 2.69306243 0 0 Z " fill="#A63129" transform="translate(171,202)"/>
<path d="M0 0 C4.22467452 0.85956581 7.15565796 2.77920093 10 6 C12.39983185 11.56324656 12.21544903 17.0512129 12 23 C10.02 23 8.04 23 6 23 C5.98582031 22.09378906 5.97164062 21.18757813 5.95703125 20.25390625 C5.64408689 12.2611381 4.699241 6.55466088 0 0 Z " fill="#EBEAE9" transform="translate(144,129)"/>
<path d="M0 0 C-1.20338313 2.50704818 -2.45330901 4.64562192 -4.0625 6.9375 C-7.11260515 12.10793847 -6.82405695 18.14989363 -7 24 C-8.65 24 -10.3 24 -12 24 C-13.06717146 11.93926857 -13.06717146 11.93926857 -10.546875 7.359375 C-4.05972222 0 -4.05972222 0 0 0 Z " fill="#F9F8F7" transform="translate(124,128)"/>
<path d="M0 0 C0.33 0.66 0.66 1.32 1 2 C1.66 2 2.32 2 3 2 C2.65613806 5.89710204 1.37857857 8.91683145 -1.19140625 11.90625 C-5.02866155 14.22683636 -9.80287552 12.80855288 -14 12 C-12.79618552 9.50638429 -11.54571278 7.31856917 -10 5 C-7.8359375 4.70703125 -7.8359375 4.70703125 -5.375 4.8125 C-4.55773437 4.83957031 -3.74046875 4.86664063 -2.8984375 4.89453125 C-2.27195312 4.92933594 -1.64546875 4.96414062 -1 5 C-1 4.34 -1 3.68 -1 3 C-3.97 3 -6.94 3 -10 3 C-9.67 2.34 -9.34 1.68 -9 1 C-6.03 1.33 -3.06 1.66 0 2 C0 1.34 0 0.68 0 0 Z " fill="#4B4B4B" transform="translate(916,250)"/>
<path d="M0 0 C0.33 0 0.66 0 1 0 C1 10.23 1 20.46 1 31 C2.32 30.67 3.64 30.34 5 30 C5.33 28.35 5.66 26.7 6 25 C6.66 25.33 7.32 25.66 8 26 C8.35664336 31.34965035 8.35664336 31.34965035 6.9375 33.9375 C3.87530347 35.61676907 1.30629059 34.68621125 -2 34 C-2.9765625 27.9453125 -2.9765625 27.9453125 -3 26 C-2.34 25.34 -1.68 24.68 -1 24 C-0.62864085 21.47962036 -0.62864085 21.47962036 -0.5859375 18.5546875 C-0.54726562 17.47832031 -0.50859375 16.40195313 -0.46875 15.29296875 C-0.4378125 14.16503906 -0.406875 13.03710938 -0.375 11.875 C-0.33632812 10.73933594 -0.29765625 9.60367188 -0.2578125 8.43359375 C-0.16332399 5.62256044 -0.07776459 2.81153767 0 0 Z " fill="#D18A34" transform="translate(117,139)"/>
<path d="M0 0 C-4.27122614 2.8474841 -8.83212048 4.99531521 -13.4375 7.25 C-14.39205078 7.7346875 -15.34660156 8.219375 -16.33007812 8.71875 C-17.25111328 9.16734375 -18.17214844 9.6159375 -19.12109375 10.078125 C-19.9608374 10.49481445 -20.80058105 10.91150391 -21.66577148 11.34082031 C-24 12 -24 12 -26.30493164 11.12011719 C-26.8643042 10.75047852 -27.42367676 10.38083984 -28 10 C-23.71902169 7.19060798 -18.26702578 4 -13 4 C-13 3.34 -13 2.68 -13 2 C-8.11922548 -0.44038726 -5.47332932 -1.46845421 0 0 Z " fill="#333333" transform="translate(944,309)"/>
<path d="M0 0 C0.33 0 0.66 0 1 0 C1.06058594 0.85464844 1.12117187 1.70929688 1.18359375 2.58984375 C1.26738281 3.69457031 1.35117188 4.79929688 1.4375 5.9375 C1.51871094 7.03964844 1.59992188 8.14179688 1.68359375 9.27734375 C1.70418084 11.91109903 1.70418084 11.91109903 3 13 C3.26293056 17.03160191 3.29404844 18.55892734 1 22 C-1.9375 22.4375 -1.9375 22.4375 -5 22 C-6.7421875 20.51953125 -6.7421875 20.51953125 -8 18 C-8.07429257 15.03093695 -7.64168801 12.17914834 -7.1875 9.25 C-7.02411133 8.06083984 -7.02411133 8.06083984 -6.85742188 6.84765625 C-6.58704456 4.89623737 -6.29556663 2.9477628 -6 1 C-5.67 1 -5.34 1 -5 1 C-4.67 6.61 -4.34 12.22 -4 18 C-3.01 18 -2.02 18 -1 18 C-0.505 9.09 -0.505 9.09 0 0 Z " fill="#CA2B34" transform="translate(215,214)"/>
<path d="M0 0 C3.625 0.375 3.625 0.375 6.0625 2.0625 C7.88453249 4.75910809 7.97930394 6.18626451 7.625 9.375 C5.645 10.365 5.645 10.365 3.625 11.375 C3.625 13.355 3.625 15.335 3.625 17.375 C3.295 17.375 2.965 17.375 2.625 17.375 C2.43205592 12.55139811 2.86752386 8.87853262 4.625 4.375 C2.315 4.045 0.005 3.715 -2.375 3.375 C-2.705 5.025 -3.035 6.675 -3.375 8.375 C-5.025 8.045 -6.675 7.715 -8.375 7.375 C-7.715 7.045 -7.055 6.715 -6.375 6.375 C-6.03157551 5.04423011 -5.69880126 3.71068021 -5.375 2.375 C-3.375 0.375 -3.375 0.375 0 0 Z " fill="#353535" transform="translate(899.375,233.625)"/>
<path d="M0 0 C10.3734499 -0.16494885 20.6510926 0.34956362 31 1 C31 1.33 31 1.66 31 2 C23.08 2.495 23.08 2.495 15 3 C15 3.33 15 3.66 15 4 C12.87506859 4.02693575 10.75004088 4.04636628 8.625 4.0625 C7.44164062 4.07410156 6.25828125 4.08570313 5.0390625 4.09765625 C2 4 2 4 0 3 C0 2.01 0 1.02 0 0 Z " fill="#515151" transform="translate(917,249)"/>
<path d="M0 0 C2.01822917 0.06510417 4.03645833 0.13020833 6.0546875 0.1953125 C5.10744623 2.56341568 4.40177616 3.94739203 2.3046875 5.4453125 C-0.52284888 6.38782463 -2.98524554 6.329861 -5.9453125 6.1953125 C-3.20430126 0.32171699 -3.20430126 0.32171699 0 0 Z " fill="#EBEBEB" transform="translate(907.9453125,255.8046875)"/>
<path d="M0 0 C0.33 0 0.66 0 1 0 C1 3.96 1 7.92 1 12 C1.99 12.33 2.98 12.66 4 13 C4.25 15.3125 4.25 15.3125 4 18 C2.25 19.8125 2.25 19.8125 0 21 C-1.32 21 -2.64 21 -4 21 C-4 20.34 -4 19.68 -4 19 C-3.01 18.67 -2.02 18.34 -1 18 C-0.505 9.09 -0.505 9.09 0 0 Z " fill="#DA8822" transform="translate(161,152)"/>
<path d="M0 0 C1.98 0 3.96 0 6 0 C5.01 0.33 4.02 0.66 3 1 C3.3609375 1.74765625 3.721875 2.4953125 4.09375 3.265625 C4.5578125 4.25046875 5.021875 5.2353125 5.5 6.25 C6.19609375 7.71179688 6.19609375 7.71179688 6.90625 9.203125 C8 12 8 12 8 16 C7.34 16 6.68 16 6 16 C4.99303432 13.89915791 3.9946411 11.79420511 3 9.6875 C2.443125 8.51574219 1.88625 7.34398437 1.3125 6.13671875 C0 3 0 3 0 0 Z " fill="#131313" transform="translate(935,266)"/>
<path d="M0 0 C0.66 0 1.32 0 2 0 C2.33 2.64 2.66 5.28 3 8 C5.97 8 8.94 8 12 8 C12 8.66 12 9.32 12 10 C6.06 10.495 6.06 10.495 0 11 C0 7.37 0 3.74 0 0 Z " fill="#111111" transform="translate(903,245)"/>
<path d="M0 0 C3.77720794 4.49667612 6 9.0971218 6 15 C5.34 15 4.68 15 4 15 C3.12855131 13.4470724 2.27846343 11.88214564 1.4375 10.3125 C0.72400391 9.00732422 0.72400391 9.00732422 -0.00390625 7.67578125 C-1.14268368 4.61671247 -0.92718689 3.08136961 0 0 Z " fill="#2A2A2A" transform="translate(943,280)"/>
<path d="M0 0 C0.33 0 0.66 0 1 0 C1.33 6.6 1.66 13.2 2 20 C3.98 19.67 5.96 19.34 8 19 C7.67 19.66 7.34 20.32 7 21 C4.1875 21.25 4.1875 21.25 1 21 C-0.875 19.25 -0.875 19.25 -2 17 C-2 15.68 -2 14.36 -2 13 C-1.34 13 -0.68 13 0 13 C0 8.71 0 4.42 0 0 Z " fill="#EE9923" transform="translate(155,153)"/>
<path d="M0 0 C2 1 2 1 3 3 C1.76115681 3.72767003 0.50831659 4.43154815 -0.75 5.125 C-1.79414062 5.71667969 -1.79414062 5.71667969 -2.859375 6.3203125 C-5 7 -5 7 -7.265625 6.1171875 C-7.83796875 5.74851562 -8.4103125 5.37984375 -9 5 C-2.53398058 1.04854369 -2.53398058 1.04854369 0 0 Z " fill="#434343" transform="translate(925,314)"/>
<path d="M0 0 C0.66 0.33 1.32 0.66 2 1 C0.95199219 1.99580078 0.95199219 1.99580078 -0.1171875 3.01171875 C-1.48230469 4.33623047 -1.48230469 4.33623047 -2.875 5.6875 C-3.77992187 6.55761719 -4.68484375 7.42773438 -5.6171875 8.32421875 C-7.89263982 10.87943979 -8.98704352 12.76901814 -10 16 C-10.6640625 14.25 -10.6640625 14.25 -11 12 C-8.45791073 7.106956 -4.47303167 3.15743412 0 0 Z " fill="#555555" transform="translate(118,124)"/>
<path d="M0 0 C0.33 0.66 0.66 1.32 1 2 C1.66 2 2.32 2 3 2 C2.25 6.75 2.25 6.75 0 9 C-0.33 7.02 -0.66 5.04 -1 3 C-3.97 3 -6.94 3 -10 3 C-9.67 2.34 -9.34 1.68 -9 1 C-6.03 1.33 -3.06 1.66 0 2 C0 1.34 0 0.68 0 0 Z " fill="#434343" transform="translate(916,250)"/>
<path d="M0 0 C-1.28519565 2.86697492 -2.57129254 4.97607712 -5 7 C-5.66 7 -6.32 7 -7 7 C-8.36161311 7.96113866 -9.69855198 8.95884159 -11 10 C-9.63088196 6.8510285 -8.1247864 4.9521513 -5.5 2.75 C-4.8915625 2.22921875 -4.283125 1.7084375 -3.65625 1.171875 C-2 0 -2 0 0 0 Z " fill="#CDCCCC" transform="translate(124,128)"/>
<path d="M0 0 C0 0.66 0 1.32 0 2 C-3.3 2.33 -6.6 2.66 -10 3 C-10 2.01 -10 1.02 -10 0 C-6.30581799 -1.231394 -3.7943739 -0.64432764 0 0 Z " fill="#434343" transform="translate(948,267)"/>
<path d="M0 0 C2.15377564 2.62198774 3.40072174 4.64404172 4 8 C3.34 8 2.68 8 2 8 C2 8.99 2 9.98 2 11 C1.34 10.67 0.68 10.34 0 10 C-1.29411765 2.58823529 -1.29411765 2.58823529 0 0 Z " fill="#333333" transform="translate(949,293)"/>
<path d="M0 0 C2.1875 0.3125 2.1875 0.3125 4 1 C2.68 2.65 1.36 4.3 0 6 C1.98 6 3.96 6 6 6 C6 6.33 6 6.66 6 7 C3.69 7 1.38 7 -1 7 C-1 6.01 -1 5.02 -1 4 C-1.66 3.67 -2.32 3.34 -3 3 C-1.75 1.4375 -1.75 1.4375 0 0 Z " fill="#3C3C3C" transform="translate(902,256)"/>
<path d="M0 0 C2 3 2 3 2 5 C3.32 5 4.64 5 6 5 C6 5.66 6 6.32 6 7 C4.35 7.33 2.7 7.66 1 8 C-1.125 3.375 -1.125 3.375 0 0 Z " fill="#292929" transform="translate(912,315)"/>
<path d="M0 0 C2.15377564 2.62198774 3.40072174 4.64404172 4 8 C3.01 8.66 2.02 9.32 1 10 C0.63720544 8.71073008 0.28503302 7.41846728 -0.0625 6.125 C-0.35833984 5.04605469 -0.35833984 5.04605469 -0.66015625 3.9453125 C-1 2 -1 2 0 0 Z " fill="#323232" transform="translate(903,296)"/>
<path d="M0 0 C0.66 0.33 1.32 0.66 2 1 C0.02 3.31 -1.96 5.62 -4 8 C-4.33 7.01 -4.66 6.02 -5 5 C-3.35 3.35 -1.7 1.7 0 0 Z " fill="#423214" transform="translate(169,188)"/>
<path d="M0 0 C0.99 0.33 1.98 0.66 3 1 C3.33 2.98 3.66 4.96 4 7 C3.34 7 2.68 7 2 7 C0.5393715 4.35261084 0 3.10551666 0 0 Z " fill="#141414" transform="translate(945,288)"/>
<path d="M0 0 C-2.61941217 1.74627478 -4.03824877 2.38722388 -7 3 C-7.33 2.01 -7.66 1.02 -8 0 C-5.13822943 -1.43088528 -3.06624227 -0.59991697 0 0 Z " fill="#414141" transform="translate(944,309)"/>
</svg>
